<svg width="78" height="66" viewBox="0 0 78 66" fill="none" xmlns="http://www.w3.org/2000/svg">
<path d="M12.5672 53.8884C12.0663 53.8884 11.6477 53.781 11.3113 53.5663C10.9822 53.3517 10.7317 53.0547 10.56 52.6754C10.3882 52.2962 10.2881 51.8561 10.2594 51.3552L11.3328 51.0654C11.3543 51.3731 11.4008 51.67 11.4723 51.9563C11.5511 52.2425 11.6763 52.4787 11.848 52.6647C12.0198 52.8436 12.2595 52.933 12.5672 52.933C12.882 52.933 13.1182 52.8472 13.2756 52.6754C13.4402 52.4965 13.5225 52.2425 13.5225 51.9133C13.5225 51.5198 13.433 51.2049 13.2542 50.9688C13.0753 50.7255 12.8498 50.4822 12.5779 50.2389L11.1181 48.9508C10.8319 48.7004 10.6208 48.4285 10.4848 48.1351C10.3489 47.8345 10.2809 47.466 10.2809 47.0295C10.2809 46.3926 10.4634 45.8989 10.8283 45.5482C11.1933 45.1976 11.6906 45.0223 12.3203 45.0223C12.6638 45.0223 12.9643 45.0688 13.2219 45.1618C13.4867 45.2477 13.705 45.3836 13.8767 45.5697C14.0556 45.7558 14.1951 45.9919 14.2953 46.2781C14.4027 46.5572 14.4742 46.8864 14.51 47.2656L13.4796 47.5447C13.4581 47.2585 13.4152 46.9973 13.3508 46.7611C13.2864 46.5178 13.1719 46.3246 13.0073 46.1815C12.8498 46.0313 12.6209 45.9561 12.3203 45.9561C12.0198 45.9561 11.7836 46.0384 11.6119 46.203C11.4473 46.3604 11.365 46.5966 11.365 46.9114C11.365 47.1762 11.4079 47.3944 11.4938 47.5662C11.5868 47.7379 11.7335 47.9132 11.9339 48.0921L13.4044 49.3802C13.7336 49.6664 14.0234 50.0099 14.2739 50.4106C14.5243 50.8042 14.6495 51.2729 14.6495 51.8167C14.6495 52.2461 14.5601 52.6182 14.3812 52.933C14.2023 53.2407 13.9554 53.4769 13.6406 53.6415C13.3329 53.8061 12.9751 53.8884 12.5672 53.8884ZM17.7372 53.7917V45.0974H18.5637L21.0324 50.8722V45.0974H22.0414V53.7917H21.2686L18.7676 47.856V53.7917H17.7372ZM25.0825 53.7917L26.9287 45.0974H28.0987L29.9556 53.7917H28.8071L28.4099 51.6021H26.6389L26.2203 53.7917H25.0825ZM26.7999 50.7326H28.2489L27.519 46.8148L26.7999 50.7326ZM35.1216 53.8884C34.5062 53.8884 34.0267 53.7595 33.6832 53.5019C33.3469 53.2443 33.1108 52.8973 32.9748 52.4608C32.846 52.0243 32.7816 51.5377 32.7816 51.001V47.9311C32.7816 47.3443 32.846 46.8327 32.9748 46.3962C33.1108 45.9597 33.3469 45.6234 33.6832 45.3872C34.0267 45.1439 34.5062 45.0223 35.1216 45.0223C35.6654 45.0223 36.0947 45.1225 36.4096 45.3228C36.7316 45.5232 36.9606 45.8094 37.0966 46.1815C37.2397 46.5536 37.3112 47.0009 37.3112 47.5232V48.2102H36.1627V47.5984C36.1627 47.2764 36.1448 46.9937 36.1091 46.7504C36.0804 46.5 35.9946 46.3068 35.8514 46.1708C35.7083 46.0348 35.4686 45.9668 35.1323 45.9668C34.7888 45.9668 34.5384 46.042 34.3809 46.1923C34.2235 46.3354 34.1197 46.5429 34.0696 46.8148C34.0267 47.0796 34.0052 47.3909 34.0052 47.7487V51.1942C34.0052 51.6307 34.041 51.9777 34.1126 52.2354C34.1841 52.4858 34.3022 52.6647 34.4668 52.772C34.6314 52.8794 34.8532 52.933 35.1323 52.933C35.4615 52.933 35.6976 52.8615 35.8407 52.7184C35.9838 52.5681 36.0733 52.3642 36.1091 52.1066C36.1448 51.8489 36.1627 51.5484 36.1627 51.2049V50.5609H37.3112V51.2049C37.3112 51.7344 37.2468 52.2032 37.118 52.611C36.9892 53.0118 36.7674 53.3266 36.4525 53.5556C36.1377 53.7774 35.694 53.8884 35.1216 53.8884ZM40.6135 53.7917V45.0974H41.8264V49.1977L43.8228 45.0974H44.9499L43.2325 48.9294L45.229 53.7917H44.0483L42.3845 49.7129L41.8264 50.7219V53.7917H40.6135ZM50.2546 53.8884C49.6678 53.8884 49.1991 53.7739 48.8485 53.5449C48.4979 53.3159 48.2474 52.9903 48.0971 52.5681C47.9469 52.1388 47.8717 51.6378 47.8717 51.0654V47.7701C47.8717 47.1977 47.9469 46.7075 48.0971 46.2996C48.2546 45.8846 48.505 45.5697 48.8485 45.355C49.1991 45.1332 49.6678 45.0223 50.2546 45.0223C50.8414 45.0223 51.3065 45.1332 51.65 45.355C51.9935 45.5769 52.2404 45.8917 52.3906 46.2996C52.5481 46.7075 52.6268 47.1977 52.6268 47.7701V51.0761C52.6268 51.6414 52.5481 52.1352 52.3906 52.5574C52.2404 52.9796 51.9935 53.3087 51.65 53.5449C51.3065 53.7739 50.8414 53.8884 50.2546 53.8884ZM50.2546 52.933C50.5766 52.933 50.8199 52.8686 50.9845 52.7398C51.1491 52.6039 51.26 52.4178 51.3173 52.1817C51.3745 51.9384 51.4031 51.6557 51.4031 51.3337V47.5232C51.4031 47.2012 51.3745 46.9257 51.3173 46.6967C51.26 46.4606 51.1491 46.2817 50.9845 46.1601C50.8199 46.0313 50.5766 45.9668 50.2546 45.9668C49.9326 45.9668 49.6857 46.0313 49.514 46.1601C49.3494 46.2817 49.2385 46.4606 49.1812 46.6967C49.124 46.9257 49.0954 47.2012 49.0954 47.5232V51.3337C49.0954 51.6557 49.124 51.9384 49.1812 52.1817C49.2385 52.4178 49.3494 52.6039 49.514 52.7398C49.6857 52.8686 49.9326 52.933 50.2546 52.933ZM58.209 53.8884C57.5793 53.8884 57.0963 53.7631 56.7599 53.5127C56.4236 53.2622 56.1946 52.9116 56.073 52.4608C55.9513 52.0028 55.8905 51.4697 55.8905 50.8614V45.0974H57.0498V50.9151C57.0498 51.2872 57.0748 51.6271 57.1249 51.9348C57.175 52.2425 57.2823 52.4858 57.4469 52.6647C57.6186 52.8436 57.8727 52.933 58.209 52.933C58.5525 52.933 58.8065 52.8436 58.9711 52.6647C59.1357 52.4858 59.243 52.2425 59.2931 51.9348C59.3432 51.6271 59.3682 51.2872 59.3682 50.9151V45.0974H60.5168V50.8614C60.5168 51.4697 60.4559 52.0028 60.3343 52.4608C60.2126 52.9116 59.9836 53.2622 59.6473 53.5127C59.3181 53.7631 58.8387 53.8884 58.209 53.8884ZM64.8958 53.7917V45.9991H63.4253V45.0974H67.5363V45.9991H66.1087V53.7917H64.8958Z" fill="#A796E4"/>
<g filter="url(#filter0_d_2268_7677)">
<path d="M38.9466 0.197754C37.0512 0.197754 35.5127 1.73339 35.5127 3.62524C35.5127 5.51708 37.0512 7.05272 38.9466 7.05272C40.842 7.05272 42.3805 5.51708 42.3805 3.62524C42.3805 1.73339 40.842 0.197754 38.9466 0.197754ZM38.9466 5.73872C37.7768 5.73872 36.8252 4.7928 36.8252 3.62128C36.8252 2.44976 37.7729 1.50384 38.9466 1.50384C40.1203 1.50384 41.068 2.44976 41.068 3.62128C41.068 4.7928 40.1203 5.73872 38.9466 5.73872Z" fill="#A796E4"/>
</g>
<path d="M4.52356 40.9754H73.3877C73.3877 40.9754 74.7715 10.5792 42.8197 5.97232C41.65 5.73089 28.585 5.10077 18.7022 12.3269C18.8172 12.2122 3.71465 22.7812 4.52356 40.9754Z" fill="#A796E4"/>
<path d="M48.2725 10.4326C51.6826 11.6318 55.7866 13.7295 59.2324 17.5132C59.6685 17.9921 60.069 18.471 60.4417 18.9538" stroke="#A796E4" stroke-width="0.736785" stroke-miterlimit="10" stroke-linecap="round"/>
<path d="M73.0529 57.8711H5.82833C3.5851 57.8711 1.7666 59.6403 1.7666 61.8227C1.7666 64.0051 3.5851 65.7743 5.82833 65.7743H73.0529C75.2961 65.7743 77.1146 64.0051 77.1146 61.8227C77.1146 59.6403 75.2961 57.8711 73.0529 57.8711Z" fill="#A796E4"/>
<defs>
<filter id="filter0_d_2268_7677" x="33.2585" y="0.197754" width="11.3765" height="11.3633" filterUnits="userSpaceOnUse" color-interpolation-filters="sRGB">
<feFlood flood-opacity="0" result="BackgroundImageFix"/>
<feColorMatrix in="SourceAlpha" type="matrix" values="0 0 0 0 0 0 0 0 0 0 0 0 0 0 0 0 0 0 127 0" result="hardAlpha"/>
<feOffset dy="2.25416"/>
<feGaussianBlur stdDeviation="1.12708"/>
<feComposite in2="hardAlpha" operator="out"/>
<feColorMatrix type="matrix" values="0 0 0 0 0 0 0 0 0 0 0 0 0 0 0 0 0 0 0.25 0"/>
<feBlend mode="normal" in2="BackgroundImageFix" result="effect1_dropShadow_2268_7677"/>
<feBlend mode="normal" in="SourceGraphic" in2="effect1_dropShadow_2268_7677" result="shape"/>
</filter>
</defs>
</svg>
